<svg id="Слой_1" data-name="Слой 1" xmlns="http://www.w3.org/2000/svg" viewBox="0 0 512 512"><defs><style>.cls-1{fill:#fff;}</style></defs><title>pan</title><path class="cls-1" d="M502.75,163.79h-41V116.9a9.25,9.25,0,0,0-9.25-9.25h-393a9.25,9.25,0,0,0-9.25,9.25v46.89h-41a9.25,9.25,0,0,0,0,18.5h41V432.38a42.52,42.52,0,0,0,42.47,42.47H419.29a42.52,42.52,0,0,0,42.47-42.47V182.3h41a9.25,9.25,0,1,0,0-18.5ZM443.26,432.38a24,24,0,0,1-24,24H92.71a24,24,0,0,1-24-24V338.29H102.1l23.26,23.26a24.72,24.72,0,1,0,13.33-12.84l-26.22-26.22a9.25,9.25,0,0,0-6.54-2.71H68.74V300.5H277.55a24.67,24.67,0,1,0,0-18.5H68.74V262.71H190.62a9.25,9.25,0,0,0,6.54-2.71l26.22-26.22A24.74,24.74,0,1,0,210,220.95l-23.26,23.26h-118V126.15H443.26V432.38Zm-295.38-67a6.17,6.17,0,1,1-6.17,6.17A6.18,6.18,0,0,1,147.88,365.42Zm146.36-74.17a6.17,6.17,0,1,1,6.17,6.17A6.18,6.18,0,0,1,294.24,291.25ZM226.39,210.9a6.17,6.17,0,1,1,6.17,6.17A6.18,6.18,0,0,1,226.39,210.9Z"/><path class="cls-1" d="M413.76,238.19a9.25,9.25,0,0,0-9.25,9.25V422.72a9.25,9.25,0,1,0,18.5,0V247.44A9.25,9.25,0,0,0,413.76,238.19Z"/><path class="cls-1" d="M413.76,146.5a9.25,9.25,0,0,0-9.25,9.25v45.84a9.25,9.25,0,1,0,18.5,0V155.75A9.25,9.25,0,0,0,413.76,146.5Z"/></svg>