<?xml version="1.0" encoding="iso-8859-1"?>
<!-- Generator: Adobe Illustrator 19.0.0, SVG Export Plug-In . SVG Version: 6.00 Build 0)  -->
<svg xmlns="http://www.w3.org/2000/svg" xmlns:xlink="http://www.w3.org/1999/xlink" version="1.1" id="Capa_1" x="0px" y="0px" viewBox="0 0 480 480" style="enable-background:new 0 0 480 480;" xml:space="preserve" width="512px" height="512px">
<g>
	<g>
		<path d="M472,56H8c-4.418,0-8,3.582-8,8v320c0,4.418,3.582,8,8,8h16v24c0,4.418,3.582,8,8,8h48c2.518,0,4.889-1.186,6.4-3.2    L108,392h264l21.6,28.8c1.511,2.014,3.882,3.2,6.4,3.2h48c4.418,0,8-3.582,8-8v-24h16c4.418,0,8-3.582,8-8V64    C480,59.582,476.418,56,472,56z M76,408H40v-16h48L76,408z M440,408h-36l-12-16h48V408z M464,376H16V72h448V376z" fill="#FFFFFF"/>
	</g>
</g>
<g>
	<g>
		<path d="M432,96H48c-4.418,0-8,3.582-8,8v240c0,4.418,3.582,8,8,8h384c4.418,0,8-3.582,8-8V104C440,99.582,436.418,96,432,96z     M424,336H56V112h368V336z" fill="#FFFFFF"/>
	</g>
</g>
<g>
	<g>
		<rect x="72" y="128" width="16" height="16" fill="#FFFFFF"/>
	</g>
</g>
<g>
	<g>
		<rect x="72" y="304" width="16" height="16" fill="#FFFFFF"/>
	</g>
</g>
<g>
	<g>
		<rect x="392" y="304" width="16" height="16" fill="#FFFFFF"/>
	</g>
</g>
<g>
	<g>
		<rect x="392" y="128" width="16" height="16" fill="#FFFFFF"/>
	</g>
</g>
<g>
	<g>
		<path d="M352,152H128c-13.255,0-24,10.745-24,24v96c0,13.255,10.745,24,24,24h224c13.255,0,24-10.745,24-24v-96    C376,162.745,365.255,152,352,152z M360,272c0,4.418-3.582,8-8,8H128c-4.418,0-8-3.582-8-8v-96c0-4.418,3.582-8,8-8h224    c4.418,0,8,3.582,8,8V272z" fill="#FFFFFF"/>
	</g>
</g>
<g>
	<g>
		<path d="M204.28,195.712C196.796,188.187,186.613,183.97,176,184c-22.091,0-40,17.908-40.001,39.999    c0,22.091,17.908,40,39.999,40.001s40-17.908,40.001-39.999C216,213.39,211.784,203.214,204.28,195.712z M159.032,207.024    c7.158-7.219,18.118-9.078,27.256-4.624L154.4,234.272C150.034,225.123,151.888,214.217,159.032,207.024z M192.968,240.976    L192.968,240.976c-7.287,6.93-18.057,8.729-27.2,4.544l31.832-31.792C201.966,222.877,200.112,233.783,192.968,240.976z" fill="#FFFFFF"/>
	</g>
</g>
<g>
	<g>
		<rect x="264" y="184" width="16" height="16" fill="#FFFFFF"/>
	</g>
</g>
<g>
	<g>
		<rect x="296" y="184" width="16" height="16" fill="#FFFFFF"/>
	</g>
</g>
<g>
	<g>
		<rect x="328" y="184" width="16" height="16" fill="#FFFFFF"/>
	</g>
</g>
<g>
	<g>
		<rect x="264" y="216" width="16" height="16" fill="#FFFFFF"/>
	</g>
</g>
<g>
	<g>
		<rect x="296" y="216" width="16" height="16" fill="#FFFFFF"/>
	</g>
</g>
<g>
	<g>
		<rect x="328" y="216" width="16" height="16" fill="#FFFFFF"/>
	</g>
</g>
<g>
	<g>
		<rect x="264" y="248" width="16" height="16" fill="#FFFFFF"/>
	</g>
</g>
<g>
	<g>
		<rect x="296" y="248" width="16" height="16" fill="#FFFFFF"/>
	</g>
</g>
<g>
	<g>
		<rect x="328" y="248" width="16" height="16" fill="#FFFFFF"/>
	</g>
</g>
<g>
</g>
<g>
</g>
<g>
</g>
<g>
</g>
<g>
</g>
<g>
</g>
<g>
</g>
<g>
</g>
<g>
</g>
<g>
</g>
<g>
</g>
<g>
</g>
<g>
</g>
<g>
</g>
<g>
</g>
</svg>
