<svg width="106" height="109" viewBox="0 0 106 109" fill="none" xmlns="http://www.w3.org/2000/svg">
<path d="M59.4915 23.446C59.4885 22.3428 59.3789 21.2426 59.1644 20.1607L63.4691 18.034L59.5949 10.1495L55.514 12.2762C53.2744 9.95606 50.5354 8.18165 47.5071 7.08904V3.45801H38.0539V7.12362C34.9797 8.21485 32.19 9.98785 29.8921 12.3108L25.639 10.1495L21.782 18.034L26.1039 20.1607C25.668 22.329 25.668 24.5629 26.1039 26.7312L21.8164 28.8579L25.6907 36.7424L29.8921 34.5811C32.1911 36.9027 34.9805 38.6754 38.0539 39.7683V43.7797H47.5071V39.7683C50.5346 38.674 53.2732 36.8998 55.514 34.5811L59.7154 36.7251L63.5208 28.8406L59.1988 26.7139C59.3993 25.6363 59.4973 24.5421 59.4915 23.446V23.446Z" stroke="white" stroke-width="4" stroke-linecap="round" stroke-linejoin="round"/>
<path d="M42.2553 31.7279C46.8675 31.7279 50.6065 27.9734 50.6065 23.342C50.6065 18.7106 46.8675 14.9561 42.2553 14.9561C37.643 14.9561 33.9041 18.7106 33.9041 23.342C33.9041 27.9734 37.643 31.7279 42.2553 31.7279Z" stroke="white" stroke-width="4" stroke-linecap="round" stroke-linejoin="round"/>
<path d="M97.4249 53.8426C97.4282 52.4603 97.2898 51.0813 97.0116 49.7275L102.418 47.0474L97.5454 37.1572L92.7241 39.7681C89.9028 37.008 86.5834 34.8133 82.9437 33.3014V29.5493H71.1315V33.3705C67.0073 34.2649 63.2985 36.5165 60.5935 39.7681L55.1007 37.1572L50.2105 47.0474L55.5828 49.7275C55.0202 52.4418 55.0202 55.2434 55.5828 57.9578L50.176 60.6378L55.1007 70.5281L60.6624 67.848C63.3339 71.1251 67.0183 73.4131 71.1315 74.3493V79.3636H82.9437V74.3493C86.5834 72.8374 89.9028 70.6426 92.7241 67.8826L97.8898 70.5626L102.608 60.6724L97.1494 57.9924C97.3748 56.6213 97.4671 55.2316 97.4249 53.8426V53.8426Z" stroke="white" stroke-width="4" stroke-linecap="round" stroke-linejoin="round"/>
<path d="M75.8667 64.2519C81.6582 64.2519 86.3531 59.5374 86.3531 53.7219C86.3531 47.9063 81.6582 43.1919 75.8667 43.1919C70.0753 43.1919 65.3804 47.9063 65.3804 53.7219C65.3804 59.5374 70.0753 64.2519 75.8667 64.2519Z" stroke="white" stroke-width="4" stroke-linecap="round" stroke-linejoin="round"/>
<path d="M40.1029 73.7617C41.4733 71.8257 42.4092 69.6143 42.8462 67.28C43.2832 64.9456 43.2108 62.5439 42.6341 60.2404C42.1236 57.7998 40.9879 55.5352 39.3391 53.6703C37.6903 51.8054 35.5855 50.4048 33.2326 49.6067C23.9171 46.6846 15.497 54.4308 15.497 64.3037C15.4802 67.6569 16.5033 70.9323 18.4243 73.6752C18.7831 74.14 19.0429 74.674 19.1875 75.244C19.332 75.8139 19.3583 76.4076 19.2646 76.9882C19.171 77.5688 18.9594 78.1238 18.643 78.6187C18.3266 79.1137 17.9122 79.538 17.4256 79.8652C13.4311 82.1953 10.0673 85.4744 7.62954 89.4147C5.19173 93.3549 3.75441 97.8358 3.44375 102.464C3.40088 102.829 3.43288 103.2 3.53777 103.552C3.64267 103.905 3.81825 104.232 4.05372 104.514C4.28918 104.795 4.57956 105.026 4.90699 105.191C5.23442 105.356 5.592 105.452 5.95772 105.473H52.6211C52.9839 105.447 53.3377 105.348 53.6611 105.181C53.9845 105.014 54.2708 104.783 54.5026 104.502C54.7345 104.22 54.907 103.895 55.0098 103.544C55.1126 103.194 55.1435 102.827 55.1007 102.464C54.7914 97.8767 53.3759 93.4336 50.9761 89.5178C48.5764 85.6019 45.2643 82.3308 41.3255 79.9863C40.8183 79.6756 40.381 79.2626 40.0412 78.7733C39.7015 78.2839 39.4666 77.7291 39.3517 77.1438C39.2368 76.5586 39.2442 75.9557 39.3735 75.3735C39.5028 74.7913 39.7512 74.2424 40.1029 73.7617Z" stroke="white" stroke-width="4" stroke-linecap="round" stroke-linejoin="round"/>
</svg>
