<svg width="225" height="100" viewBox="0 0 225 100" fill="none" xmlns="http://www.w3.org/2000/svg">
<path fill-rule="evenodd" clip-rule="evenodd" d="M190.676 43.2289H173.687V10.9757C173.674 8.05639 172.481 5.26125 170.37 3.20362C168.259 1.14599 165.403 -0.00615427 162.427 2.47325e-05H66.9874C64.0117 -0.00615519 61.155 1.14602 59.0439 3.20362C56.9329 5.26122 55.7399 8.05629 55.7267 10.9757V43.2289H9.21383C6.77949 43.2239 4.44251 44.1662 2.7153 45.8492C0.988084 47.5322 0.0115914 49.8185 0 52.2068V90.8246C0.0115914 93.2128 0.988084 95.4992 2.7153 97.1822C4.44251 98.8652 6.77949 99.8074 9.21383 99.8025H80.6442C83.0785 99.8074 85.4155 98.8652 87.1427 97.1822C88.8699 95.4992 89.8464 93.2128 89.858 90.8246V85.9465H99.8424L93.3065 96.7014C93.1171 97.0139 93.0157 97.3702 93.0128 97.7338C93.0098 98.0974 93.1053 98.4552 93.2896 98.7706C93.4738 99.0861 93.7402 99.3478 94.0614 99.5291C94.3826 99.7104 94.7472 99.8048 95.1178 99.8025H134.377C134.795 99.8059 135.203 99.6866 135.551 99.4601C135.898 99.2335 136.168 98.91 136.327 98.5313C136.485 98.1526 136.524 97.7361 136.439 97.3354C136.354 96.9347 136.148 96.5683 135.849 96.2833L129.574 85.9465H161.665V90.6503C161.674 93.084 162.666 95.4148 164.426 97.1308C166.185 98.8468 168.566 99.8077 171.047 99.8025H190.678C193.159 99.808 195.541 98.8473 197.301 97.1314C199.061 95.4155 200.055 93.0846 200.065 90.6503V52.3694C200.053 49.9366 199.057 47.6079 197.297 45.8943C195.537 44.1807 193.156 43.2221 190.676 43.2289ZM190.676 47.3286C192.043 47.3252 193.356 47.854 194.327 48.7989C195.298 49.7438 195.847 51.0279 195.854 52.3694V85.1451H166.599C168.684 84.3378 170.473 82.9356 171.737 81.1198C173 79.3039 173.68 77.1579 173.687 74.9593V47.3286H190.676ZM66.9874 81.8351C65.1232 81.8397 63.3334 81.1181 62.0111 79.8289C60.6888 78.5397 59.9422 76.7882 59.9353 74.9593V69.7677H169.478V74.9593C169.471 76.788 168.725 78.5393 167.403 79.8285C166.081 81.1177 164.291 81.8394 162.427 81.8351H66.9874ZM59.9353 10.9757C59.9444 9.14745 60.6917 7.39725 62.0135 6.10849C63.3353 4.81974 65.1239 4.09746 66.9874 4.09994H162.427C164.291 4.09746 166.079 4.81971 167.401 6.10849C168.722 7.39728 169.469 9.14755 169.478 10.9757V65.6678H59.9353V10.9757ZM4.20383 90.8246V52.2068C4.21072 50.9095 4.74131 49.6676 5.67944 48.7534C6.61757 47.8391 7.8868 47.3268 9.20913 47.3286H55.722V74.9593C55.7327 77.8805 56.9245 80.6782 59.0357 82.7382C61.1469 84.7982 64.0051 85.952 66.9827 85.9465H75.4898V95.7026H9.21383C7.89068 95.7057 6.62025 95.194 5.6811 94.2796C4.74195 93.3651 4.21073 92.1227 4.20383 90.8246ZM85.6447 90.8246C85.6378 92.1219 85.1072 93.3636 84.1691 94.2778C83.231 95.1921 81.9617 95.7044 80.6394 95.7026H79.6924V85.9465H85.6518V90.8246H85.6447ZM130.601 95.7026H98.809L104.735 85.9465H124.679L130.601 95.7026ZM171.044 95.7026C169.676 95.7044 168.362 95.1736 167.392 94.2264C166.422 93.2792 165.874 91.9931 165.87 90.6503V89.245H195.854V90.6503C195.849 91.9937 195.301 93.2802 194.33 94.2275C193.36 95.1748 192.045 95.7053 190.676 95.7026H171.044ZM111.778 42.9501C112.173 43.337 112.708 43.5541 113.266 43.5541C113.824 43.5541 114.359 43.337 114.754 42.9501L130.282 27.8282C130.478 27.6381 130.633 27.4119 130.739 27.1627C130.844 26.9135 130.899 26.6463 130.899 26.3764C130.899 26.1065 130.844 25.8391 130.739 25.5899C130.633 25.3408 130.478 25.1147 130.282 24.9246C129.887 24.5395 129.352 24.3235 128.795 24.3235C128.238 24.3235 127.703 24.5395 127.307 24.9246L113.277 38.5947L108.715 34.158C108.32 33.7728 107.785 33.5568 107.227 33.5568C106.67 33.5568 106.135 33.7728 105.739 34.158C105.544 34.3469 105.389 34.5721 105.283 34.8203C105.177 35.0686 105.123 35.3349 105.123 35.6039C105.123 35.873 105.177 36.1395 105.283 36.3877C105.389 36.6359 105.544 36.861 105.739 37.0499L111.778 42.9501ZM49.2204 63.0894L39.481 72.5783L36.5924 69.7677C36.1967 69.3826 35.6618 69.1664 35.1043 69.1664C34.5469 69.1664 34.012 69.3826 33.6162 69.7677C33.421 69.9567 33.266 70.1817 33.1602 70.4299C33.0544 70.6782 33 70.9446 33 71.2137C33 71.4827 33.0544 71.7491 33.1602 71.9973C33.266 72.2455 33.421 72.4707 33.6162 72.6597L37.9964 76.9337C38.3944 77.3147 38.9285 77.528 39.4845 77.528C40.0406 77.528 40.5746 77.3147 40.9726 76.9337L52.2002 65.9814C52.3954 65.7924 52.5504 65.5672 52.6562 65.319C52.762 65.0708 52.8164 64.8045 52.8164 64.5354C52.8164 64.2664 52.762 63.9999 52.6562 63.7517C52.5504 63.5034 52.3954 63.2784 52.2002 63.0894C51.8044 62.7047 51.2698 62.4887 50.7126 62.4887C50.1555 62.4887 49.6209 62.7047 49.2252 63.0894H49.2204ZM178.626 71.5678C179.02 71.9547 179.556 72.172 180.114 72.172C180.672 72.172 181.207 71.9547 181.602 71.5678L189.964 63.4147C190.16 63.2259 190.315 63.0007 190.421 62.7524C190.527 62.5042 190.582 62.2378 190.582 61.9687C190.582 61.6995 190.527 61.433 190.421 61.1848C190.315 60.9366 190.16 60.7115 189.964 60.5227C189.569 60.1376 189.034 59.9216 188.477 59.9216C187.92 59.9216 187.385 60.1376 186.989 60.5227L180.114 67.2125L178.338 65.4935C177.942 65.1085 177.408 64.8924 176.85 64.8924C176.293 64.8924 175.759 65.1085 175.363 65.4935C175.167 65.6824 175.012 65.9075 174.906 66.1558C174.8 66.404 174.746 66.6704 174.746 66.9395C174.746 67.2087 174.8 67.4752 174.906 67.7234C175.012 67.9717 175.167 68.1967 175.363 68.3855L178.626 71.5678Z" fill="white"/>
</svg>
