<svg width="115" height="125" viewBox="0 0 115 125" fill="none" xmlns="http://www.w3.org/2000/svg">
<path d="M81.1349 71.3474C86.9339 61.8022 89.2398 46.0717 83.9914 37.3536L71.1543 58.4769L54.4627 59.9759L48.113 44.4694L60.9329 23.346C50.7975 22.6568 37.8572 31.8574 31.9721 41.3508C25.8117 51.6885 27.6185 60.8546 36.4805 69.366L13.8694 105.238C13.1178 106.417 12.6088 107.735 12.3725 109.114C12.1362 110.493 12.1772 111.905 12.4932 113.268C12.8092 114.631 13.3938 115.917 14.2126 117.051C15.0315 118.184 16.0682 119.143 17.262 119.87C18.4557 120.597 19.7824 121.079 21.1644 121.286C22.5463 121.493 23.9557 121.422 25.3098 121.076C26.6638 120.731 27.9354 120.118 29.0499 119.274C30.1644 118.43 31.0994 117.372 31.8 116.161L54.4111 80.2723C63.4968 82.7016 74.9401 81.5472 81.1349 71.3474Z" stroke="white" stroke-width="4" stroke-linecap="round" stroke-linejoin="round"/>
<path d="M47.9754 96.2266V106.823H71.8083V97.4672C77.1083 95.2101 85.9875 90.5754 91.5801 84.166L101.905 89.6794L111.524 69.3314L100.201 63.8352C100.696 61.0434 100.92 58.2104 100.872 55.3755C100.865 52.5293 100.582 49.6905 100.029 46.8986L111.163 41.3507L101.148 21.0716L91.5801 26.585C86.0392 20.2273 77.1083 15.5064 71.8083 13.2666V3.4458H47.9754V13.2666C40.0254 15.5409 31.1806 20.1584 25.6052 26.585L13.9555 21.0716L3.68244 41.3507L14.661 46.8297C13.5254 52.418 13.5254 58.178 14.661 63.7663L3.44153 69.3314L13.4565 89.6794L25.6052 83.5457" stroke="white" stroke-width="4" stroke-linecap="round" stroke-linejoin="round"/>
</svg>
