<svg id="Capa_1" data-name="Capa 1" xmlns="http://www.w3.org/2000/svg" viewBox="0 0 512 512"><defs><style>.cls-1{fill:#fff;}.cls-2{fill:none;stroke:#fff;stroke-miterlimit:10;stroke-width:30px;}</style></defs><title>lock-razdevalka</title><path class="cls-1" d="M400,0H304a80.1,80.1,0,0,0-80,80v64h32V80a48,48,0,0,1,48-48h96a48,48,0,0,1,48,48v80h32V80A80.1,80.1,0,0,0,400,0Z"/><path class="cls-1" d="M304,336v32a112,112,0,0,0,0-224v32a80,80,0,0,1,0,160Z"/><path class="cls-1" d="M176,32V0A144.16,144.16,0,0,0,32,144H64A112.13,112.13,0,0,1,176,32Z"/><path class="cls-1" d="M128,144a48,48,0,0,1,48-48V64a80.1,80.1,0,0,0-80,80Z"/><rect class="cls-1" x="448" y="192" width="32" height="32"/><rect class="cls-1" x="448" y="256" width="32" height="32"/><path class="cls-1" d="M448,432a48,48,0,0,1-48,48H304a48,48,0,0,1-48-48V368H224v64a80.1,80.1,0,0,0,80,80h96a80.1,80.1,0,0,0,80-80V320H448Z"/><path class="cls-1" d="M304,299.57V317a61,61,0,0,0,0-122v17.43a43.57,43.57,0,0,1,0,87.14Z"/><line class="cls-2" x1="240" y1="181" x2="240" y2="328"/></svg>