<svg width="130" height="120" viewBox="0 0 130 120" fill="none" xmlns="http://www.w3.org/2000/svg">
<path d="M58.2422 52.4811C58.2382 51.2159 58.112 49.9541 57.8653 48.713L62.8331 46.2748L58.345 37.2381L53.6513 39.6933C51.0525 37.0477 47.8836 35.0246 44.384 33.7769V29.5825H33.4721V33.7769C29.9012 35.0119 26.657 37.0345 23.9821 39.6933L19.0486 37.2381L14.6119 46.2748L19.5968 48.713C19.3502 49.9541 19.224 51.2159 19.2199 52.4811C19.238 53.7537 19.3815 55.0215 19.6482 56.2662L14.6805 58.7044L19.1685 67.7411L23.9821 65.2858C26.6469 67.9323 29.8715 69.9536 33.4207 71.2023V75.8059H44.3497V71.2023C47.8459 69.9476 51.0134 67.9255 53.6171 65.2858L58.4649 67.724L62.8673 58.6874L57.9167 56.2662C58.1488 55.0181 58.2578 53.7503 58.2422 52.4811V52.4811Z" stroke="white" stroke-width="4" stroke-linecap="round" stroke-linejoin="round"/>
<path d="M39.6047 61.9949C44.9405 61.9949 49.2661 57.6896 49.2661 52.3786C49.2661 47.0676 44.9405 42.7622 39.6047 42.7622C34.2689 42.7622 29.9434 47.0676 29.9434 52.3786C29.9434 57.6896 34.2689 61.9949 39.6047 61.9949Z" stroke="white" stroke-width="4" stroke-linecap="round" stroke-linejoin="round"/>
<path d="M104.853 87.3319C104.856 85.7463 104.701 84.1642 104.391 82.609L110.626 79.557L105.007 68.2015L99.3543 71.2876C96.2195 67.7411 90.7892 65.1154 88.0313 63.8707V59.4888H74.3273V63.8707C69.5483 64.9175 65.2599 67.529 62.1478 71.2876L55.9124 68.2015L50.2595 79.5399L56.5291 82.609C55.8988 85.7321 55.8988 88.9488 56.5291 92.0719L50.2938 95.1409L55.9124 106.479L62.3533 103.41C65.4529 107.142 69.7047 109.75 74.4472 110.827V116.607H88.1512V110.827C90.892 109.565 96.3394 106.94 99.4742 103.41L105.384 106.479L110.849 95.1409L104.493 92.0719C104.762 90.5066 104.883 88.9196 104.853 87.3319V87.3319Z" stroke="white" stroke-width="4" stroke-linecap="round" stroke-linejoin="round"/>
<path d="M81.2307 99.2498C87.9194 99.2498 93.3417 93.8527 93.3417 87.1952C93.3417 80.5376 87.9194 75.1406 81.2307 75.1406C74.542 75.1406 69.1198 80.5376 69.1198 87.1952C69.1198 93.8527 74.542 99.2498 81.2307 99.2498Z" stroke="white" stroke-width="4" stroke-linecap="round" stroke-linejoin="round"/>
<path d="M3.42603 21.4155H123.611" stroke="white" stroke-width="4" stroke-linecap="round" stroke-linejoin="round"/>
<path d="M15.4513 13.4695C15.9433 13.4695 16.3421 13.0726 16.3421 12.5829C16.3421 12.0932 15.9433 11.6963 15.4513 11.6963C14.9594 11.6963 14.5605 12.0932 14.5605 12.5829C14.5605 13.0726 14.9594 13.4695 15.4513 13.4695Z" stroke="white" stroke-width="4" stroke-linecap="round" stroke-linejoin="round"/>
<path d="M23.6395 13.4695C24.1315 13.4695 24.5303 13.0726 24.5303 12.5829C24.5303 12.0932 24.1315 11.6963 23.6395 11.6963C23.1476 11.6963 22.7488 12.0932 22.7488 12.5829C22.7488 13.0726 23.1476 13.4695 23.6395 13.4695Z" stroke="white" stroke-width="4" stroke-linecap="round" stroke-linejoin="round"/>
<path d="M31.8447 13.4695C32.3367 13.4695 32.7355 13.0726 32.7355 12.5829C32.7355 12.0932 32.3367 11.6963 31.8447 11.6963C31.3528 11.6963 30.954 12.0932 30.954 12.5829C30.954 13.0726 31.3528 13.4695 31.8447 13.4695Z" stroke="white" stroke-width="4" stroke-linecap="round" stroke-linejoin="round"/>
<path d="M53.7199 100.273H6.25249C5.52855 100.268 4.83581 99.979 4.32551 99.4679C3.8152 98.9568 3.52879 98.2655 3.52881 97.5449V6.12121C3.52881 5.40221 3.81577 4.71265 4.32656 4.20424C4.83734 3.69583 5.53012 3.41021 6.25249 3.41021H123.833C124.192 3.40796 124.548 3.47642 124.881 3.61166C125.213 3.74689 125.515 3.94623 125.77 4.19819C126.025 4.45015 126.227 4.74977 126.365 5.0798C126.503 5.40983 126.574 5.76375 126.574 6.12121V97.5449C126.574 98.2684 126.285 98.9623 125.771 99.4739C125.257 99.9855 124.56 100.273 123.833 100.273H109.273" stroke="white" stroke-width="4" stroke-linecap="round" stroke-linejoin="round"/>
</svg>
