<?xml version="1.0" encoding="iso-8859-1"?>
<!-- Generator: Adobe Illustrator 19.0.0, SVG Export Plug-In . SVG Version: 6.00 Build 0)  -->
<svg xmlns="http://www.w3.org/2000/svg" xmlns:xlink="http://www.w3.org/1999/xlink" version="1.1" id="Capa_1" x="0px" y="0px" viewBox="0 0 512 512" style="enable-background:new 0 0 512 512;" xml:space="preserve" width="512px" height="512px">
<g>
	<g>
		<g>
			<path d="M437.333,128H320V42.667C320,19.135,300.865,0,277.333,0H106.667C83.135,0,64,19.135,64,42.667v426.667     C64,492.865,83.135,512,106.667,512h170.667C300.865,512,320,492.865,320,469.333v-256h117.333     c5.896,0,10.667-4.771,10.667-10.667v-64C448,132.771,443.229,128,437.333,128z M298.667,469.333     c0,11.76-9.573,21.333-21.333,21.333H106.667c-11.76,0-21.333-9.573-21.333-21.333V42.667c0-11.76,9.573-21.333,21.333-21.333     h170.667c11.76,0,21.333,9.573,21.333,21.333V128h-59.208c-12.177-13.625-29.188-21.333-47.458-21.333c-35.292,0-64,28.708-64,64     c0,35.292,28.708,64,64,64c18.271,0,35.281-7.708,47.458-21.333h59.208V469.333z M426.667,192h-192.24     c-3.344,0-6.49,1.563-8.51,4.24c-8.208,10.865-20.573,17.094-33.917,17.094c-23.531,0-42.667-19.135-42.667-42.667     S168.469,128,192,128c13.344,0,25.708,6.229,33.917,17.094c2.021,2.677,5.167,4.24,8.51,4.24h192.24V192z" fill="#FFFFFF"/>
			<path d="M128,309.333c0,5.896,4.771,10.667,10.667,10.667h106.667c5.896,0,10.667-4.771,10.667-10.667     c0-5.896-4.771-10.667-10.667-10.667H138.667C132.771,298.667,128,303.438,128,309.333z" fill="#FFFFFF"/>
			<path d="M245.333,384H138.667c-5.896,0-10.667,4.771-10.667,10.667s4.771,10.667,10.667,10.667h106.667     c5.896,0,10.667-4.771,10.667-10.667S251.229,384,245.333,384z" fill="#FFFFFF"/>
			<path d="M379.74,322.188c-4.698-3.531-11.385-2.583-14.938,2.125c-3.531,4.708-2.583,11.396,2.125,14.938     c10.844,8.146,17.063,20.583,17.063,34.135c0,13.542-6.208,25.979-17.031,34.125c-4.708,3.542-5.656,10.219-2.115,14.927     c2.094,2.792,5.292,4.26,8.531,4.26c2.229,0,4.479-0.698,6.396-2.146c16.24-12.208,25.552-30.854,25.552-51.167     C405.323,353.063,396,334.406,379.74,322.188z" fill="#FFFFFF"/>
			<path d="M410.604,292.281c-4.479-3.823-11.198-3.313-15.031,1.177c-3.833,4.479-3.302,11.208,1.177,15.031     c19,16.25,29.906,39.906,29.906,64.896c0,25-10.906,48.656-29.917,64.896c-4.479,3.833-5.01,10.563-1.188,15.042     c2.115,2.469,5.104,3.74,8.115,3.74c2.458,0,4.917-0.844,6.927-2.552c23.771-20.313,37.396-49.875,37.396-81.125     C447.99,342.146,434.365,312.583,410.604,292.281z" fill="#FFFFFF"/>
		</g>
	</g>
</g>
<g>
</g>
<g>
</g>
<g>
</g>
<g>
</g>
<g>
</g>
<g>
</g>
<g>
</g>
<g>
</g>
<g>
</g>
<g>
</g>
<g>
</g>
<g>
</g>
<g>
</g>
<g>
</g>
<g>
</g>
</svg>
